<?xml version="1.0" encoding="UTF-8" standalone="no"?>
<svg
   viewBox="0 -1 100 50"
   version="1.1"
   id="svg8"
   sodipodi:docname="php-logo01.svg"
   inkscape:version="1.2 (dc2aedaf03, 2022-05-15)"
   xmlns:inkscape="http://www.inkscape.org/namespaces/inkscape"
   xmlns:sodipodi="http://sodipodi.sourceforge.net/DTD/sodipodi-0.dtd"
   xmlns="http://www.w3.org/2000/svg"
   xmlns:svg="http://www.w3.org/2000/svg">
  <defs
     id="defs12" />
  <sodipodi:namedview
     id="namedview10"
     pagecolor="#505050"
     bordercolor="#eeeeee"
     borderopacity="1"
     inkscape:showpageshadow="0"
     inkscape:pageopacity="0"
     inkscape:pagecheckerboard="0"
     inkscape:deskcolor="#505050"
     showgrid="false"
     inkscape:zoom="5.2608745"
     inkscape:cx="1.615701"
     inkscape:cy="6.3677626"
     inkscape:window-width="1920"
     inkscape:window-height="1001"
     inkscape:window-x="-9"
     inkscape:window-y="-9"
     inkscape:window-maximized="1"
     inkscape:current-layer="svg8" />
  <ellipse
     style="fill:#917c6f;stroke:#000000;stroke-width:0.771363;stroke-linecap:round;stroke-linejoin:round;paint-order:stroke fill markers"
     id="path293"
     cx="48.407001"
     cy="27.411667"
     rx="66.188492"
     ry="27.411667"
     inkscape:export-filename="php.png"
     inkscape:export-xdpi="865.20038"
     inkscape:export-ydpi="865.20038" />
  <path
     d="m7.579 10.123 14.204 0c4.169 0.035 7.19 1.237 9.063 3.604 1.873 2.367 2.491 5.6 1.855 9.699-0.247 1.873-0.795 3.71-1.643 5.512-0.813 1.802-1.943 3.427-3.392 4.876-1.767 1.837-3.657 3.003-5.671 3.498-2.014 0.495-4.099 0.742-6.254 0.742l-6.36 0-2.014 10.07-7.367 0 7.579-38.001 0 0m6.201 6.042-3.18 15.9c0.212 0.035 0.424 0.053 0.636 0.053 0.247 0 0.495 0 0.742 0 3.392 0.035 6.219-0.3 8.48-1.007 2.261-0.742 3.781-3.321 4.558-7.738 0.636-3.71 0-5.848-1.908-6.413-1.873-0.565-4.222-0.83-7.049-0.795-0.424 0.035-0.83 0.053-1.219 0.053-0.353 0-0.724 0-1.113 0l0.053-0.053"
     id="path2" />
  <path
     d="m41.093 0 7.314 0-2.067 10.123 6.572 0c3.604 0.071 6.289 0.813 8.056 2.226 1.802 1.413 2.332 4.099 1.59 8.056l-3.551 17.649-7.42 0 3.392-16.854c0.353-1.767 0.247-3.021-0.318-3.763-0.565-0.742-1.784-1.113-3.657-1.113l-5.883-0.053-4.346 21.783-7.314 0 7.632-38.054 0 0"
     id="path4" />
  <path
     d="m70.412 10.123 14.204 0c4.169 0.035 7.19 1.237 9.063 3.604 1.873 2.367 2.491 5.6 1.855 9.699-0.247 1.873-0.795 3.71-1.643 5.512-0.813 1.802-1.943 3.427-3.392 4.876-1.767 1.837-3.657 3.003-5.671 3.498-2.014 0.495-4.099 0.742-6.254 0.742l-6.36 0-2.014 10.07-7.367 0 7.579-38.001 0 0m6.201 6.042-3.18 15.9c0.212 0.035 0.424 0.053 0.636 0.053 0.247 0 0.495 0 0.742 0 3.392 0.035 6.219-0.3 8.48-1.007 2.261-0.742 3.781-3.321 4.558-7.738 0.636-3.71 0-5.848-1.908-6.413-1.873-0.565-4.222-0.83-7.049-0.795-0.424 0.035-0.83 0.053-1.219 0.053-0.353 0-0.724 0-1.113 0l0.053-0.053"
     id="path6" />
</svg>
